# xmcd
#
# Track frame offsets:
#	150
#	31502
#	33662
#	36982
#	37805
#	42470
#	51070
#	56427
#	82745
#	93030
#	94457
#	97017
#	102010
#	116945
#	119057
#	123192
#	128207
#	134760
#	138035
#	141987
#	153677
#	164075
#	174425
#	186227
#	199055
#	202667
#	204357
#	217842
#	228465
#	238355
#	242860
#
# Disc length: 3674 seconds
#
# Revision: 1
# Processed by: cddbd v1.5.1PL0 Copyright (c) Steve Scherf et al.
# Submitted via: CDex 1.50Beta5
#
DISCID=bd0e581f
DTITLE=横山智佐(真宮寺さくら)&帝国歌劇団 - 劇場版「サクラ大戦 活動写真」全曲集
DYEAR=2001
DGENRE=
TTITLE0=横山智佐(真宮寺さくら)&帝国歌劇団/劇場版・奇跡の鐘
TTITLE1=サントラ/わたしたちの場所
TTITLE2=サントラ/帝都ニュース
TTITLE3=サントラ/メロドラマ
TTITLE4=サントラ/ラチェット登場
TTITLE5=サントラ/賢人機関
TTITLE6=サントラ/テーマ・オブ・ブレント
TTITLE7=サントラ/事件発生〜出動!
TTITLE8=サントラ/バトル!〜ラチェット乱入!〜新兵器?!
TTITLE9=サントラ/アイリスの心情
TTITLE10=サントラ/レニの心情
TTITLE11=サントラ/ヤフキエルの恐怖
TTITLE12=サントラ/花組のお正月
TTITLE13=サントラ/危機
TTITLE14=サントラ/罠
TTITLE15=サントラ/はじめまして、マリア
TTITLE16=サントラ/花組団結
TTITLE17=サントラ/ブレントの力
TTITLE18=サントラ/潜入
TTITLE19=サントラ/帝国華撃団参上!
TTITLE20=サントラ/あやつられた織姫
TTITLE21=サントラ/脅威
TTITLE22=サントラ/猛威
TTITLE23=サントラ/反撃、そして…
TTITLE24=サントラ/あなたがいたから
TTITLE25=サントラ/おやすみ…パトリック…
TTITLE26=横山智佐(真宮寺さくら)&帝国歌劇団/劇場版・すべては海へ
TTITLE27=サントラ/緊迫
TTITLE28=サントラ/優しさ
TTITLE29=サントラ/カーテンコール
TTITLE30=サントラ/エンディング
EXTD=
EXTT0=
EXTT1=
EXTT2=
EXTT3=
EXTT4=
EXTT5=
EXTT6=
EXTT7=
EXTT8=
EXTT9=
EXTT10=
EXTT11=
EXTT12=
EXTT13=
EXTT14=
EXTT15=
EXTT16=
EXTT17=
EXTT18=
EXTT19=
EXTT20=
EXTT21=
EXTT22=
EXTT23=
EXTT24=
EXTT25=
EXTT26=
EXTT27=
EXTT28=
EXTT29=
EXTT30=
PLAYORDER=
